<svg xmlns="http://www.w3.org/2000/svg" viewBox="0 0 64 64"><defs><style>.cls-1{isolation:isolate;}.cls-2{fill:#0095e8;}.cls-3{fill:#e2e2e2;}.cls-4{fill:red;}.cls-5{fill:#00cced;}.cls-6,.cls-7{fill:none;stroke:#000;stroke-width:2px;}.cls-6{stroke-linecap:round;stroke-linejoin:round;}.cls-7{stroke-miterlimit:10;}.cls-8{opacity:0.25;mix-blend-mode:multiply;}.cls-10,.cls-9{mix-blend-mode:overlay;}.cls-10{fill:#fff;}</style></defs><title>Icon Color</title><g class="cls-1"><g id="Layer_1" data-name="Layer 1"><g id="Vector"><path class="cls-2" d="M37.11,48.77l-1.32.8,0,1,0,1.33a1.81,1.81,0,0,1-1.77,1.83,1.78,1.78,0,0,1-1.77-1.34A8.36,8.36,0,0,1,16,49.92a8.08,8.08,0,0,1,.14-1.56A8.31,8.31,0,0,1,19,43.44a2.26,2.26,0,0,0,.82-1.73V10.18a4.47,4.47,0,0,1,4.47-4.46,4.47,4.47,0,0,1,4.46,4.46V37.71a1.81,1.81,0,0,1,2.14-.3L32,38v-.49h0A1.77,1.77,0,0,1,33.27,36V10.18a8.95,8.95,0,0,0-8.94-8.94,9,9,0,0,0-8.95,8.94V40.7A12.84,12.84,0,1,0,36.15,54.93s0,0,0-.07a1.81,1.81,0,0,1,.42-2.34h0l.43-.27a12.67,12.67,0,0,0,.22-2.32A8.77,8.77,0,0,0,37.11,48.77Zm-5.25-4.42a1.79,1.79,0,0,1-1.06.25c.14.18.29.37.41.56a1.06,1.06,0,0,1,.46.1v0l1.38.77.88.49,2.3-1.4c-.12-.29-.24-.57-.38-.85l-2-1.1-.87.53Z"/><path class="cls-3" d="M29.92,48.36H16.1A8.31,8.31,0,0,1,19,43.44a2.26,2.26,0,0,0,.82-1.73V10.18a4.47,4.47,0,0,1,4.47-4.46,4.47,4.47,0,0,1,4.46,4.46V37.71a1.84,1.84,0,0,0-.31.41,1.81,1.81,0,0,0,.31,2.15V41.7a2.15,2.15,0,0,0,.34,1.16,1.9,1.9,0,0,0,.25.89,1.8,1.8,0,0,0,1.42.85c.14.18.29.37.41.56a1.77,1.77,0,0,0-1.78.9A1.81,1.81,0,0,0,29.92,48.36Z"/><path class="cls-4" d="M32.31,52.4A8.36,8.36,0,0,1,16,49.92a8.08,8.08,0,0,1,.14-1.56H29.92l0,0h0l.44.25-1,.6a1.8,1.8,0,0,0,1.87,3.08l1-.6V52A1.2,1.2,0,0,0,32.31,52.4Z"/><path class="cls-5" d="M52.29,51.25a1.79,1.79,0,0,1-2.44.7l-1-.56v.5h0a1.8,1.8,0,0,1-3.57.06h0l0-1.56,0-1-2.93-1.61.08,3.33.88.49,1.16.64a1.8,1.8,0,1,1-1.74,3.16l-.22-.12,0,1.16a1.81,1.81,0,1,1-3.61.08l0-1.18-.42.26h0a1.78,1.78,0,0,1-2.21-.65s0,0,0-.07a1.81,1.81,0,0,1,.42-2.34h0l.43-.27.9-.53.87-.53-.06-3.34-1.55.93-1.32.8,0,1,0,1.33a1.81,1.81,0,0,1-1.77,1.83,1.78,1.78,0,0,1-1.77-1.34,1.2,1.2,0,0,1-.07-.42v-.26l-1,.6a1.8,1.8,0,0,1-1.87-3.08l1-.6-.44-.25h0l0,0a1.81,1.81,0,0,1-.49-2.3,1.77,1.77,0,0,1,1.78-.9,1.06,1.06,0,0,1,.46.1v0l1.38.77.88.49,2.3-1.4.56-.34-.94-.51-2-1.1-.87.53-1.13.68a1.83,1.83,0,0,1-2.48-.6,1.9,1.9,0,0,1-.25-.89,2.15,2.15,0,0,1-.34-1.16V40.27a1.81,1.81,0,0,1-.31-2.15,1.84,1.84,0,0,1,.31-.41,1.81,1.81,0,0,1,2.14-.3L32,38v-.49h0A1.77,1.77,0,0,1,33.27,36a1.68,1.68,0,0,1,.45-.06,1.76,1.76,0,0,1,1.81,1.52h0l0,1.57,0,1,2.93,1.63-.06-3.35-.9-.49-1.16-.64a1.79,1.79,0,0,1-.71-2.44A1.81,1.81,0,0,1,38.15,34l.23.14,0-1.18A1.81,1.81,0,0,1,42,32.85L42,34l.43-.26h0a1.8,1.8,0,0,1,1.85,3.06h0l-1.36.82-.86.52.07,3.34L45,39.8v-1l0-1.33a1.81,1.81,0,0,1,1.77-1.84,1.79,1.79,0,0,1,1.83,1.77v.25l1-.6a1.81,1.81,0,0,1,1.87,3.09l-1,.6.44.24v0a1.8,1.8,0,0,1-1.73,3.13h0l-1.37-.77-.89-.48L44,44.61l2.92,1.61.87-.53L48.92,45a1.8,1.8,0,1,1,1.86,3.09l-.21.12,1,.58A1.79,1.79,0,0,1,52.29,51.25Z"/></g><g id="Line"><path class="cls-6" d="M37.11,48.77l-1.32.8,0,1,0,1.33a1.81,1.81,0,0,1-1.77,1.83,1.78,1.78,0,0,1-1.77-1.34A8.36,8.36,0,0,1,16,49.92a8.08,8.08,0,0,1,.14-1.56A8.31,8.31,0,0,1,19,43.44a2.26,2.26,0,0,0,.82-1.73V10.18a4.47,4.47,0,0,1,4.47-4.46,4.47,4.47,0,0,1,4.46,4.46V37.71a1.81,1.81,0,0,1,2.14-.3L32,38v-.49h0A1.77,1.77,0,0,1,33.27,36V10.18a8.95,8.95,0,0,0-8.94-8.94,9,9,0,0,0-8.95,8.94V40.7A12.84,12.84,0,1,0,36.15,54.93s0,0,0-.07a1.81,1.81,0,0,1,.42-2.34h0l.43-.27a12.67,12.67,0,0,0,.22-2.32A8.77,8.77,0,0,0,37.11,48.77Zm-5.25-4.42a1.79,1.79,0,0,1-1.06.25c.14.18.29.37.41.56a1.06,1.06,0,0,1,.46.1v0l1.38.77.88.49,2.3-1.4c-.12-.29-.24-.57-.38-.85l-2-1.1-.87.53Z"/><path class="cls-6" d="M29.92,48.36H16.1A8.31,8.31,0,0,1,19,43.44a2.26,2.26,0,0,0,.82-1.73V10.18a4.47,4.47,0,0,1,4.47-4.46,4.47,4.47,0,0,1,4.46,4.46V37.71a1.84,1.84,0,0,0-.31.41,1.81,1.81,0,0,0,.31,2.15V41.7a2.15,2.15,0,0,0,.34,1.16,1.9,1.9,0,0,0,.25.89,1.8,1.8,0,0,0,1.42.85c.14.18.29.37.41.56a1.77,1.77,0,0,0-1.78.9A1.81,1.81,0,0,0,29.92,48.36Z"/><path class="cls-7" d="M32.31,52.4A8.36,8.36,0,0,1,16,49.92a8.08,8.08,0,0,1,.14-1.56H29.92l0,0h0l.44.25-1,.6a1.8,1.8,0,0,0,1.87,3.08l1-.6V52A1.2,1.2,0,0,0,32.31,52.4Z"/><path class="cls-6" d="M52.29,51.25a1.79,1.79,0,0,1-2.44.7l-1-.56v.5h0a1.8,1.8,0,0,1-3.57.06h0l0-1.56,0-1-2.93-1.61.08,3.33.88.49,1.16.64a1.8,1.8,0,1,1-1.74,3.16l-.22-.12,0,1.16a1.81,1.81,0,1,1-3.61.08l0-1.18-.42.26h0a1.78,1.78,0,0,1-2.21-.65s0,0,0-.07a1.81,1.81,0,0,1,.42-2.34h0l.43-.27.9-.53.87-.53-.06-3.34-1.55.93-1.32.8,0,1,0,1.33a1.81,1.81,0,0,1-1.77,1.83,1.78,1.78,0,0,1-1.77-1.34,1.2,1.2,0,0,1-.07-.42v-.26l-1,.6a1.8,1.8,0,0,1-1.87-3.08l1-.6-.44-.25h0l0,0a1.81,1.81,0,0,1-.49-2.3,1.77,1.77,0,0,1,1.78-.9,1.06,1.06,0,0,1,.46.1v0l1.38.77.88.49,2.3-1.4.56-.34-.94-.51-2-1.1-.87.53-1.13.68a1.83,1.83,0,0,1-2.48-.6,1.9,1.9,0,0,1-.25-.89,2.15,2.15,0,0,1-.34-1.16V40.27a1.81,1.81,0,0,1-.31-2.15,1.84,1.84,0,0,1,.31-.41,1.81,1.81,0,0,1,2.14-.3L32,38v-.49h0A1.77,1.77,0,0,1,33.27,36a1.68,1.68,0,0,1,.45-.06,1.76,1.76,0,0,1,1.81,1.52h0l0,1.57,0,1,2.93,1.63-.06-3.35-.9-.49-1.16-.64a1.79,1.79,0,0,1-.71-2.44A1.81,1.81,0,0,1,38.15,34l.23.14,0-1.18A1.81,1.81,0,0,1,42,32.85L42,34l.43-.26h0a1.8,1.8,0,0,1,1.85,3.06h0l-1.36.82-.86.52.07,3.34L45,39.8v-1l0-1.33a1.81,1.81,0,0,1,1.77-1.84,1.79,1.79,0,0,1,1.83,1.77v.25l1-.6a1.81,1.81,0,0,1,1.87,3.09l-1,.6.44.24v0a1.8,1.8,0,0,1-1.73,3.13h0l-1.37-.77-.89-.48L44,44.61l2.92,1.61.87-.53L48.92,45a1.8,1.8,0,1,1,1.86,3.09l-.21.12,1,.58A1.79,1.79,0,0,1,52.29,51.25Z"/></g><g id="Shadow" class="cls-8"><path d="M16.48,49.92a12.8,12.8,0,0,1,3.9-9.22V10.18A8.94,8.94,0,0,1,26.84,1.6a9.06,9.06,0,0,0-2.51-.36,9,9,0,0,0-8.95,8.94V40.7A12.83,12.83,0,0,0,26.82,62.51,12.86,12.86,0,0,1,16.48,49.92Z"/></g><g id="Highligth" class="cls-9"><path class="cls-10" d="M30.51,37.33a4.78,4.78,0,0,1,.47-.54,1.39,1.39,0,0,0,.81-.06,1.79,1.79,0,0,0,.85-1A5.19,5.19,0,0,0,33.15,34l.12.07V10.18a8.95,8.95,0,0,0-8.94-8.94,9,9,0,0,0-2.49.36,8.95,8.95,0,0,1,6.43,8.58V36a1.68,1.68,0,0,1,.45-.06A1.76,1.76,0,0,1,30.51,37.33Z"/><path class="cls-10" d="M52,37.65A1.79,1.79,0,0,0,49.55,37l-1,.6v-.25a1.8,1.8,0,0,0-3.5-.55,5.17,5.17,0,0,0,.14,1,5.32,5.32,0,0,0,1.24,2.33l-1,.6.44.24v0a1.81,1.81,0,0,1,.58,2.15l.42-.26.89.48,1.37.77h0A1.8,1.8,0,0,0,50.85,41v0l-.44-.24,1-.6A1.8,1.8,0,0,0,52,37.65Z"/><path class="cls-10" d="M37,33.79V34l.43-.26h0l0,0A2,2,0,0,0,37,33.79Z"/><path class="cls-10" d="M44.68,34.5a1.8,1.8,0,0,0-2.26-.72h0L42,34l0-1.18a1.81,1.81,0,0,0-3.61.08l0,.72a1.76,1.76,0,0,1,1.31.85,1.81,1.81,0,0,1-.41,2.34h0l-1,.6a5.17,5.17,0,0,1,.58,1.15,4.63,4.63,0,0,1,.59,1.52L40,39.8v-1l2.09-.6a1.08,1.08,0,0,1,.82-1.14.88.88,0,0,1,.65.25l.75-.45h0A1.81,1.81,0,0,0,44.68,34.5Z"/><path class="cls-10" d="M51.59,48.8l-1-.58.21-.12A1.8,1.8,0,1,0,48.92,45l-1.13.68-.87.53L46.57,46a1.79,1.79,0,0,1-.79,2.07l-.21.12,1,.58a1.79,1.79,0,0,1,.7,2.45,1.77,1.77,0,0,1-2,.87,1.8,1.8,0,0,0,3.53-.23h0v-.5l1,.56a1.8,1.8,0,0,0,1.74-3.15Z"/><path class="cls-10" d="M35.59,56.82,36,54.6l-1.08-.24-.32-.27a3.63,3.63,0,0,0-1.5-.11,3.55,3.55,0,0,0-1.92,1,12.91,12.91,0,0,1-9.33,7.58,13,13,0,0,0,2.51.25,12.81,12.81,0,0,0,10.1-4.94c-.45-.32-.45-.51-.43-.58C34.09,56.82,35.48,56.82,35.59,56.82Z"/><path class="cls-10" d="M44.37,52.23l-.56-.3a1.8,1.8,0,0,1-1.75,1.56,1.76,1.76,0,0,1-.91-.23,5.48,5.48,0,0,1-1,1.32l-.05.11a1.76,1.76,0,0,1-1.27.89v.93a1.81,1.81,0,1,0,3.61-.08l0-1.16.22.12a1.8,1.8,0,1,0,1.74-3.16Z"/></g></g></g></svg>